PathFileType	4	(X/Y/Z)	AB13\squats_1.trc
DataRate	CameraRate	NumFrames	NumMarkers	Units	OrigDataRate	OrigDataStartFrame	OrigNumFrames
200.000000	200.000000	4	35	mm	200.000000	276	316
Frame#	Time	C7			LSHO			STRN			LASI			RASI			LPSI			RPSI			LGTR			RGTR			LTHC			LTHL			LTHR			LKNE			LMKNE			LSHC			LSHL			LSHR			LANK			LMANK			LMT1			LMT5			LCAL			RTHC			RTHL			RTHR			RKNE			RSHC			RSHL			RSHR			RANK			RMANK			RMT1			RMT5			RCAL			RMKNE			
		X1	Y1	Z1	X2	Y2	Z2	X3	Y3	Z3	X4	Y4	Z4	X5	Y5	Z5	X6	Y6	Z6	X7	Y7	Z7	X8	Y8	Z8	X9	Y9	Z9	X10	Y10	Z10	X11	Y11	Z11	X12	Y12	Z12	X13	Y13	Z13	X14	Y14	Z14	X15	Y15	Z15	X16	Y16	Z16	X17	Y17	Z17	X18	Y18	Z18	X19	Y19	Z19	X20	Y20	Z20	X21	Y21	Z21	X22	Y22	Z22	X23	Y23	Z23	X24	Y24	Z24	X25	Y25	Z25	X26	Y26	Z26	X27	Y27	Z27	X28	Y28	Z28	X29	Y29	Z29	X30	Y30	Z30	X31	Y31	Z31	X32	Y32	Z32	X33	Y33	Z33	X34	Y34	Z34	X35	Y35	Z35	

277	34.07	-3427.430186584489	1383.237401246118	2462.83836227741	-3506.716881206293	1338.956481816446	2603.277814560312	-3553.354769661865	1264.683853723539	2440.190199348529	-3519.473479544261	883.338569223834	2565.204002084327	-3483.876769497672	860.5315018083157	2295.057868700176	-3292.468872213766	958.3470687371474	2508.80325444469	-3290.886805601589	973.6556494865309	2433.96246484508	-3418.751318186326	866.0304044827407	2646.596160421545	-3363.928375399598	845.6127523731727	2250.621086863415	-3481.177259859172	680.4008548736575	2655.305775388985	-3435.189701941206	535.8870516500083	2561.743617369527	-3564.248945844009	679.3381418757932	2588.825305445422	-3566.702419185429	461.604074119677	2647.862617283874	-3568.475311440232	446.1872690023038	2533.082094782151	-3453.765605597798	238.691497413183	2684.909197083365	-3530.841591676868	247.6444926147219	2643.766825727693	-3403.982167290312	208.8032426129404	2617.563221226092	-3408.691130014252	96.40167150207482	2686.63584764182	-3446.897888799535	101.1964071490934	2606.757580175961	-3555.199789561069	59.99990069053094	2653.675631489052	-3511.385543609028	53.51067846936207	2731.057277799068	-3353.04896025275	72.33350002361823	2638.611506587224	-3417.413044086575	530.575396254535	2329.007933818131	-3422.117485386182	685.372771873796	2233.221538031287	-3540.904472664819	676.0943691384963	2287.037995566404	-3523.714953217739	469.0279972137447	2232.628509058727	-3398.471548295156	192.4831939339658	2322.824529328665	-3437.316220564661	234.8038162884403	2244.009692765312	-3518.972330326578	262.8088502976394	2258.802828045271	-3402.678868732305	99.9606836535318	2265.269431016241	-3452.25868891988	102.6818663011396	2336.184619681726	-3552.174967146362	57.49470034041264	2273.015613058803	-3477.127294261687	44.77966543762406	2204.690327682542	-3348.027603372589	66.82410139403736	2318.786440992308	-3563.523293453142	466.1412144060644	2343.627382275283	
278	34.075	-3426.200431168032	1386.027135021918	2462.838509140376	-3505.67527958331	1341.964817815563	2603.257842743083	-3552.501377877783	1267.986793375964	2440.047232103451	-3520.506203319276	886.2343899036395	2565.19738302985	-3485.210394405059	863.1824648237026	2295.121426223044	-3293.325212124789	960.4249933351548	2508.729651410482	-3291.743504286252	975.7925466513523	2433.931920089674	-3419.802016931106	868.2440337958204	2646.381455981505	-3365.326872198355	847.8395480097043	2250.908898135769	-3481.460198559344	682.0129046612312	2655.201045135929	-3434.107044124002	537.6512095681608	2561.595281278634	-3564.423512937247	680.0944544852269	2588.659012986642	-3565.066416244444	462.3500561382844	2647.680324104871	-3566.728867212223	446.9528252445066	2532.972444352506	-3452.934667772438	238.9313602589602	2684.907744965184	-3529.96676247511	248.263872387114	2643.751022636594	-3403.296510116357	208.7940141627563	2617.62563482889	-3408.603357596295	96.38415746626242	2686.735365421614	-3446.852180300657	101.2991644324695	2606.855286662906	-3555.163961165054	60.00899437489509	2653.699891776218	-3511.367620668953	53.50544011130197	2731.094918975256	-3353.005759479095	72.3398564680022	2638.671762157909	-3416.535573408747	532.2219086274425	2329.723001710045	-3422.845784473042	686.9649478414409	2233.586944531685	-3541.358849776962	676.7176624997829	2287.778448996891	-3522.595793945066	469.6878318069324	2233.653750969045	-3397.972366763317	192.4014053675822	2323.054701762809	-3436.745688430512	235.0775843223786	2244.367899296461	-3518.273439953237	263.3495906458445	2259.374723411926	-3402.621704130469	100.0003529314498	2265.301043327188	-3452.186659948687	102.6625506229214	2336.226630916835	-3552.179050745251	57.45636094823593	2273.095821350642	-3477.17480533407	44.80968796037472	2204.729504038702	-3347.973306972915	66.80223391802205	2318.71726010092	-3562.120024379999	466.6396908797976	2344.679663777361	
279	34.08	-3424.979367233924	1388.754605854056	2462.848916294522	-3504.642455561558	1344.914152618978	2603.246489427518	-3551.654665354302	1271.227094736481	2439.916936484337	-3521.528468383281	889.0813233744823	2565.209463689153	-3486.556251810595	865.782343891684	2295.200052632494	-3294.179159740052	962.45257324591	2508.643669286851	-3292.603098965624	977.879349319215	2433.892317481579	-3420.830946434743	870.4095013198959	2646.164669693287	-3366.736916131949	850.0152524550169	2251.193540904819	-3481.731482834668	683.6078815204706	2655.105340236283	-3433.021172923371	539.3969254959883	2561.468824850774	-3564.578926633026	680.8289384057988	2588.503153180661	-3563.42254553488	463.0886744005612	2647.52225003776	-3564.980088885616	447.7109328490314	2532.888984791193	-3452.095745781148	239.1630700628557	2684.914667019424	-3529.08563711629	248.8788757744985	2643.751852933625	-3402.611778994349	208.7791368922952	2617.691996689443	-3408.511735129105	96.36274324264747	2686.835699126747	-3446.808190064934	101.4031506365884	2606.958892279475	-3555.126645280541	60.0252030841576	2653.733233123225	-3511.345783019743	53.50110329940137	2731.141008068703	-3352.961043475043	72.3413666001755	2638.731151042159	-3415.656124404192	533.8485165338349	2330.416520192769	-3423.588978254396	688.5334738767674	2233.946352295085	-3541.809422499669	677.3125516861912	2288.52706164002	-3521.479058549834	470.3352503248369	2234.668744899388	-3397.472881122278	192.3172458655718	2323.277823824396	-3436.179234052779	235.3443858925427	2244.717683268686	-3517.575891212627	263.8822643855475	2259.943566505272	-3402.568255866366	100.0412678958824	2265.33018441937	-3452.116856852525	102.645051800012	2336.269956612666	-3552.184997528287	57.41581313788848	2273.175912642372	-3477.223045553103	44.84047659565199	2204.770015054736	-3347.919655951912	66.78107920398442	2318.648016869108	-3560.715219751991	467.1262914666817	2345.7225297716	
280	34.085	-3423.767319726411	1391.419646135167	2462.86960101338	-3503.616986479098	1347.804338140479	2603.24490656686	-3550.815249833543	1274.404957985392	2439.799675612341	-3522.540880371918	891.8783245734121	2565.238703231296	-3487.911044531255	868.3324029023504	2295.292810328129	-3295.031555990374	964.4298093319372	2508.546093620924	-3293.465569300995	979.916266349173	2433.845124302374	-3421.838372122256	872.5261072139135	2645.945600481797	-3368.154453204308	852.1401623052104	2251.47389913606	-3481.989855819161	685.1863204611425	2655.018886660755	-3431.93273967294	541.1244835217385	2561.364803538307	-3564.715650493908	681.5423895643393	2588.359651869086	-3561.770340239522	463.8200167687059	2647.390048214168	-3563.230149115877	448.4612109883305	2532.833295481338	-3451.247776900489	239.3870237418262	2684.931523037848	-3528.197378037351	249.4894347248559	2643.771389754724	-3401.927043743595	208.7587655763683	2617.763588341446	-3408.414694696494	96.33729377255014	2686.937343082913	-3446.764177644409	101.5087274551389	2607.069790561804	-3555.087133250185	60.05097726832232	2653.776994813682	-3511.319273072212	53.49719929486188	2731.196496622248	-3352.913994175545	72.33767781653042	2638.790682769598	-3414.773632394878	535.4570704633924	2331.088574873809	-3424.342810457397	690.0781994026257	2234.298738713899	-3542.25310677527	677.8798733887843	2289.2791716715	-3520.361046709162	470.9711626753256	2235.671649671694	-3396.972210010365	192.2307179753071	2323.493558293036	-3435.614960812803	235.6044029333583	2245.058393138858	-3516.877775694131	264.4075433935721	2260.507468429229	-3402.517646559214	100.0829035276811	2265.35648425439	-3452.048214869463	102.6300614482494	2336.313899408837	-3552.192236710237	57.37400643382884	2273.255463727624	-3477.271468063306	44.87175910436868	2204.811353084171	-3347.866488734674	66.76049594384641	2318.578781576875	-3559.306883942483	467.6026666580609	2346.753669144195	
